<svg viewBox="0 0 100 50" xmlns="http://www.w3.org/2000/svg">
  <defs>
    <style>
      .cls-1 { fill: none; stroke: #b2b2b2; stroke-miterlimit: 10; }
      .cls-2 { fill: #5d5d5d; }
    </style>
  </defs>
  <rect height="48" width="98" y="1" x="1" class="cls-1"/>
  <g class="cls-2">
    <text x="8" y="30" font-family="Arial, sans-serif" font-size="9" font-weight="bold" fill="#5d5d5d">Deutsche Post</text>
    <path d="M82,18 c0,0-3-5-8-5c-5,0-8,4-8,8s3,8,8,8c2,0,3.5-0.5,5-1.5l0-3c-1.5,1.5-3,2-4.5,2c-3,0-5.5-2-5.5-5.5s2.5-5.5,5.5-5.5c2,0,4,1.5,5,3l2.5-0.5z" transform="translate(6,2)"/>
    <path d="M72,25 l10,0 l-2,2 l-10,0z" transform="translate(6,2)" fill="#5d5d5d"/>
    <path d="M70,28 l12,0 l-2,2 l-12,0z" transform="translate(6,2)" fill="#5d5d5d"/>
    <path d="M68,31 l14,0 l-2,2 l-14,0z" transform="translate(6,2)" fill="#5d5d5d"/>
  </g>
</svg>