<svg viewBox="0 0 100 50" xmlns="http://www.w3.org/2000/svg" id="Layer_1">
  <defs>
    <style>
      .cls-1 {
        fill: none;
        stroke: #b2b2b2;
        stroke-miterlimit: 10;
      }

      .cls-2 {
        fill: #5d5d5d;
      }
    </style>
  </defs>
  <path d="M24.07,19.34l-2.56,3.48h13.93c.7,0,.69.26.35.73-.35.47-.93,1.3-1.29,1.78-.18.24-.51.69.57.69h5.7l1.68-2.3c1.05-1.42.09-4.37-3.65-4.37h-14.74ZM48.08,19.34l-4.92,6.67h17.97l4.91-6.67h-7.34l-2.81,3.82h-3.28l2.82-3.82h-7.35ZM68.43,19.34l-4.91,6.67h7.78l4.91-6.67h-7.77ZM25.61,23.67l-5.13,6.98h12.51c4.13,0,6.44-2.81,7.15-3.79h-8.53c-1.09,0-.75-.44-.57-.69.36-.48.94-1.29,1.29-1.77.35-.47.36-.73-.35-.73h-6.37ZM10,26.87v.81h11.33l.59-.81h-11.91ZM42.54,26.87l-2.79,3.79h7.34l2.79-3.79h-7.34ZM53.16,26.87l-2.79,3.79h7.34l2.79-3.79h-7.34ZM62.88,26.87s-.53.73-.79,1.09c-.92,1.25-.11,2.7,2.9,2.7h11.79l2.78-3.79h-16.68ZM80.91,26.87l-.59.81h9.68v-.81h-9.09ZM10,28.37v.8h10.23l.59-.8h-10.82ZM79.81,28.37l-.58.8h10.77v-.8h-10.19ZM10,29.85v.8h9.13l.59-.8h-9.72ZM78.72,29.85l-.59.8h11.87v-.8h-11.28Z" class="cls-2"></path>
  <rect height="48" width="98" y="1" x="1" class="cls-1"></rect>
</svg>