<svg viewBox="0 0 100 50" xmlns="http://www.w3.org/2000/svg" id="Layer_1">
  <defs>
    <style>
      .cls-1 {
        fill: none;
        stroke: #b2b2b2;
        stroke-miterlimit: 10;
      }

      .cls-2 {
        fill: #5d5d5d;
        fill-rule: evenodd;
      }
    </style>
  </defs>
  <rect height="48" width="98" y="1" x="1" class="cls-1"></rect>
  <g>
    <path d="M61.11,34.07c-1.32.37-3.04.52-4.52.52-3.84,0-6.36-2-6.36-5.66s2.37-5.72,5.81-5.72c.77,0,1.6.09,2.09.34v-5.04h2.98v15.55ZM58.13,26.14c-.46-.22-1.11-.34-1.84-.34-1.81,0-3.01,1.11-3.01,3.04,0,2.06,1.29,3.23,3.41,3.23.37,0,.95,0,1.44-.12v-5.81ZM85.61,34.07c-1.32.37-3.04.52-4.55.52-3.81,0-6.36-2-6.36-5.66s2.37-5.72,5.81-5.72c.8,0,1.6.09,2.09.34v-5.04h3.01v15.55ZM82.6,26.14c-.46-.22-1.08-.34-1.81-.34-1.84,0-3.04,1.11-3.04,3.04,0,2.06,1.32,3.23,3.44,3.23.37,0,.92,0,1.41-.12v-5.81ZM65.81,26.14c.49-.22,1.2-.28,1.78-.28,1.84,0,3.1,1.05,3.1,2.92,0,2.21-1.41,3.23-3.29,3.26v2.55h.15c3.87,0,6.18-2.12,6.18-5.9,0-3.44-2.46-5.47-6.09-5.47-1.84,0-3.66.43-4.86.92v14.6h3.01v-12.6Z" class="cls-2" id="path7"></path>
    <path d="M40.52,18.89h0s-.26.16-.26.16h-.01s-.34.2-.34.2h0s-.28.15-.28.15h0s-.28.15-.28.15h0s-.28.15-.28.15h0s-.28.15-.28.15h0s-.29.15-.29.15h.01s-.26.15-.26.15h0s-.28.15-.28.15h0s-.28.15-.28.15h0s-.28.15-.28.15h0s-.28.15-.28.15h0s-.28.15-.28.15h.01s-.26.15-.26.15h0s-.21.14-.21.14h-.01s-.26.15-.26.15h-.01s-.26.15-.26.15h-.01s-.26.15-.26.15h-.01s-.24.14-.24.14h0s-.34.21-.34.21h0s-.28.15-.28.15h0s-.28.15-.28.15h0s-.28.15-.28.15h0s-.28.15-.28.15h0s-.28.15-.28.15h.01s-.26.15-.26.15h0s-.28.15-.28.15h0s-.28.15-.28.15h0s-.19.12-.19.12c0,0-.02,0-.02,0h0c-.11.05-.27.05-.39,0h0s-.03,0-.03,0l-.15-.12.05.06-.61-.37c-.06-.03-.09-.09-.15-.15-.06-.09-.06-.15-.09-.22v-.83c0-.07.04-.17.09-.25h0c.03-.06.06-.09.12-.12l.11-.07h.01s.24-.14.24-.14h0s.26-.17.26-.17h.01s.26-.15.26-.15h.01s.26-.15.26-.15h.01s.34-.2.34-.2h0s.28-.15.28-.15h0s.28-.15.28-.15h-.01s.26-.15.26-.15h0s.28-.15.28-.15h0s.28-.15.28-.15h0s.28-.15.28-.15h0s.28-.15.28-.15h0s.28-.15.28-.15h0s.29-.15.29-.15h-.01s.26-.15.26-.15h0s.28-.15.28-.15h0s.28-.15.28-.15h0s.21-.14.21-.14h.01s.24-.14.24-.14h0s.27-.16.27-.16h0s.26-.16.26-.16h.01s.34-.2.34-.2h0s.28-.15.28-.15h0s.28-.15.28-.15h0s.28-.15.28-.15h0s.29-.15.29-.15h-.01s.26-.15.26-.15h0s.28-.15.28-.15h0s.28-.15.28-.15h0s.28-.15.28-.15h0s.22-.12.22-.12l-.58-.3h0s-.73-.4-.73-.4h0s-.76-.41-.76-.41h0s-.73-.39-.73-.39h0s-.73-.4-.73-.4h0s-.76-.41-.76-.41h0s-.73-.39-.73-.39h0s-.73-.4-.73-.4h0s-.76-.41-.76-.41h0s-.73-.39-.73-.39h0s-.71-.38-.71-.38l-.03-.03-.76-.39h0s-.73-.39-.73-.39h0s-.95-.53-.95-.53h0s-.75-.4-.75-.4l.04.05-.58-.31h0s-.18-.1-.18-.1c-.12-.07-.25-.1-.39-.11h0s-.06-.01-.09-.01c-.09,0-.18.02-.27.04h-.01s-.04,0-.06.01c-.01,0-.02,0-.04,0h0s-.08.04-.1.06l-.1.05-.02-.02-.34.18h0s-.28.15-.28.15h0s-.28.15-.28.15h0s-.28.15-.28.15h0s-.2.11-.2.11l-.02-.02-.26.17h-.01s-.34.17-.34.17h0s-.28.15-.28.15h0s-.28.15-.28.15h0s-.28.15-.28.15h0s-.2.11-.2.11l-.02-.02-.37.18h0s-.29.15-.29.15h0s-.29.15-.29.15h0s-.29.15-.29.15h0s-.29.15-.29.15h0s-.18.1-.18.1h0s-.37.17-.37.17h0s-.29.15-.29.15h0s-.29.15-.29.15h0s-.28.15-.28.15h0s-.28.15-.28.15h0s-.2.11-.2.11l-.02-.02-.34.18h0s-.28.15-.28.15h0s-.28.15-.28.15h0s-.28.15-.28.15h0s-.28.15-.28.15h0s-.2.11-.2.11l-.02-.02-.34.18h0s-.28.15-.28.15h0s-.28.15-.28.15h0s-.28.15-.28.15h0s-.28.15-.28.15h0s-.2.11-.2.11l-.02-.02-.34.18h0s-.28.15-.28.15h0s-.28.15-.28.15h0s-.28.15-.28.15h0s-.28.15-.28.15h0s-.2.11-.2.11l-.02-.02-.37.18v.02s-.12.08-.12.08l.36.2.04.05.98.54.61.35h0s.98.59.98.59l-.03-.04.63.35.02.02.78.44.02.02.91.51.65.38h0s.8.46.8.46h0s.03.02.03.02l.18.11h0s.55.29.55.29l.04.05.78.44.02.02.98.55-.02-.03.82.49-.02-.03.82.49-.03-.04.57.32.05.06.76.41.04.05.85.46.23.15c.12.06.25.22.25.37v11.16c0,.06-.03.12-.06.15h0c-.04.08-.09.15-.15.19h0s0,.03-.03.03l-.21.13h0s-.27.15-.27.15h0s-.22.12-.22.12c-.06.03-.12.03-.18.03l.02.02s-.04.01-.05.01h-.03c-.09,0-.15-.03-.22-.06l-.06-.03h0s-.68-.37-.68-.37c-.12-.06-.22-.22-.22-.37v-9.96c0-.06-.06-.15-.12-.18l-.45-.27h0s-.8-.47-.8-.47h0s-.03-.02-.03-.02l-.18-.11h0s-.55-.29-.55-.29l-.04-.05-.98-.55.02.03-.82-.49.02.03-.82-.49.03.04-.57-.32-.05-.06-.98-.54-.61-.35h0s-.98-.59-.98-.59l.03.04-.63-.35-.02-.02-.98-.55.02.03-.82-.49.02.03-.6-.36h0s-.1-.06-.1-.06l-.12-.07h0s-.55-.29-.55-.29l-.04-.05-.25-.12v13.22c0,.31.22.68.46.83l.71.39.61.35h0s.75.43.75.43l.05.06.76.41.04.05,1.01.58-.02-.03.82.49-.03-.03.64.37h0s.8.46.8.46h0s.8.46.8.46h0s.8.46.8.46h0s.81.47.81.47l.02.03.98.58-.02-.03.82.49-.03-.03.64.37h0s.8.46.8.46h0s.43.25.43.25c.07.05.17.07.27.08h.01c.06.01.12.01.18.01.07,0,.13-.01.2-.02l.02.02c.09-.03.18-.06.28-.09l.09-.06h0s.28-.15.28-.15h0s.28-.15.28-.15h-.01s.26-.15.26-.15h0s.28-.15.28-.15h0s.21-.14.21-.14h.01s.26-.15.26-.15h.01s.26-.15.26-.15h.01s.34-.2.34-.2h-.01s.26-.15.26-.15h0s.28-.15.28-.15h0s.28-.15.28-.15h0s.28-.15.28-.15h0s.28-.15.28-.15h-.01s.26-.15.26-.15h0s.28-.15.28-.15h0s.21-.14.21-.14h.01s.26-.15.26-.15h.01s.24-.14.24-.14h0s.34-.21.34-.21h0s.28-.15.28-.15h0s.28-.15.28-.15h0s.28-.15.28-.15h0s.28-.15.28-.15h-.01s.26-.15.26-.15h0s.28-.15.28-.15h0s.21-.14.21-.14h.01s.26-.15.26-.15h.01s.24-.14.24-.14h0s.34-.21.34-.21h0s.28-.15.28-.15h0s.28-.15.28-.15h0s.28-.15.28-.15h0s.28-.15.28-.15h-.01s.26-.15.26-.15h0s.28-.15.28-.15h0s.28-.15.28-.15h0s.21-.14.21-.14h.01s.24-.14.24-.14h0s.26-.17.26-.17h.01s.34-.2.34-.2h0s.28-.15.28-.15h0s.28-.15.28-.15h0s.28-.15.28-.15h-.01s.26-.15.26-.15l.18-.09.03-.03c.09-.06.18-.18.28-.28l-.02-.02c.06-.09.12-.19.14-.28v-.02c0-.07.03-.13.03-.2v-13.22l-.12.07Z" class="cls-2"></path>
  </g>
</svg>