<svg viewBox="0 0 100 50" xmlns="http://www.w3.org/2000/svg" id="Layer_1">
  <defs>
    <style>
      .cls-1 {
        fill: none;
        stroke: #b2b2b2;
        stroke-miterlimit: 10;
      }

      .cls-2 {
        fill: #5d5d5d;
      }
    </style>
  </defs>
  <rect height="48" width="98" y="1" x="1" class="cls-1"></rect>
  <path d="M46.32,36.3c-1.41-.2-2.61-.71-3.61-1.5-.78-.62-1.43-1.44-2.02-2.56-.25-.48-.48-.87-.5-.87-.02,0-.19.31-.38.68-1.35,2.67-3.58,4.04-6.78,4.17-2.57.1-4.59-.64-6.23-2.28-1.86-1.87-2.52-4.26-2.05-7.41.03-.21-.04-.22-2.82-.25h-2.85v9.23h-5.97V13.5h13.03v2.39s0,2.39,0,2.39l-3.51.06-3.51.06-.03,1.55-.03,1.55h3.19c2.81,0,3.2,0,3.26.17.04.1.07.68.07,1.3s.04,1.13.08,1.13c.04,0,.28-.27.52-.6.7-.95,2.18-1.99,3.42-2.41,2.12-.71,5.01-.54,6.87.41,1.54.78,2.8,2.16,3.39,3.71.11.28.23.52.27.52.04,0,.23-.34.42-.75.44-.96,1.33-2.15,2.03-2.7,1.32-1.04,2.37-1.44,3.99-1.52,1.83-.09,2.97.22,4.06,1.12.25.2.48.37.51.37.03,0,.07-1.97.09-4.37l.03-4.37h18.07v5.75h-3.24c-2.66,0-3.26,0-3.37.15-.08.1-.11.44-.09.9l.03.74,7.13.06,7.13.06.23.27c.28.32,1.92,2.12,2.22,2.43.24.24.06.41,1.82-1.64.48-.55.97-1.03,1.1-1.06.13,0,1.8-.06,3.71,0,2.53,0,3.47.06,3.47.15,0,.07-.17.31-.38.54-.34.38-2.15,2.4-3.95,4.42-.36.41-.87.97-1.13,1.25-.74.8-.74.79-.17,1.45.28.32.65.75.83.95.18.21.75.84,1.27,1.41,2.12,2.34,3.69,4.11,3.69,4.17,0,.06-1.75.06-3.88.06h-3.88s-.43-.53-.43-.53c-1-1.21-1.96-2.27-2.07-2.28-.07,0-.69.62-1.39,1.4l-1.27,1.41h-25.44l-.03-.52c-.02-.28-.06-.52-.09-.52-.03,0-.34.25-.67.56-1.12,1.03-2.71,1.53-4.14,1.32v-.15ZM70.57,33.82c.46-.54.88-1,.91-1.03.04,0,.43-.47.88-.98.45-.51,1.06-1.19,1.35-1.52,1.13-1.24,1.33-1.47,1.51-1.76.19-.29.19-.3-.19-.7-.91-.99-4.47-4.98-5.09-5.71-.16-.19-.33-.31-.38-.25-.05.06-.11,1.17-.14,2.49l-.06,2.41h-6.56v2.82h6.62v2.43c0,2.33.04,2.82.22,2.75.04,0,.46-.47.93-1.01v.06ZM77.3,33.15c.6-.68,1.29-1.47,1.55-1.75l.46-.51.28.33c.16.18.51.57.79.87.28.3.82.91,1.21,1.36.39.45.75.85.81.89.06.06,1.12.08,2.36.08,1.73,0,2.25,0,2.25-.13,0-.08-.19-.34-.41-.58-1.62-1.8-2.32-2.59-2.95-3.3-.4-.45-.98-1.1-1.29-1.45-.64-.71-.65-.59.2-1.54.27-.3.79-.89,1.16-1.3,1.36-1.55,2.28-2.58,2.73-3.07.25-.27.46-.57.46-.64,0-.1-.5-.13-2.14-.13h-2.14l-.65.73c-.36.4-1.02,1.16-1.46,1.68-.45.52-.87.95-.93.95s-.44-.35-.83-.79c-.39-.43-.91-1.01-1.16-1.27-.25-.27-.61-.67-.79-.9l-.34-.41h-2.26c-1.73,0-2.26,0-2.25.13,0,.08.18.33.41.57.73.78,1.47,1.61,2.52,2.81.57.65,1.29,1.45,1.6,1.79.31.33.57.67.57.75,0,.08-.67.88-1.49,1.79-2.73,3.02-3.73,4.19-3.67,4.29.03.06,1.01.06,2.2.06l2.15-.06,1.09-1.24h0ZM68.21,32.9c.02-.81,0-1.57-.03-1.71l-.06-.24h-6.56l-.03-2.63-.03-2.63h3.24c2.63,0,3.27,0,3.37-.15.08-.1.12-.64.09-1.65l-.03-1.5-3.26-.06-3.26-.06-.03-2.03-.03-2.04h6.62v-3.58h-11.29v19.86h11.23l.03-1.46v-.09ZM33.76,32.34c.24-.06.62-.31.91-.59l.5-.48h2.48c2.81,0,2.57.11,2.33-1.03l-.14-.65h-5.03c-3.74,0-5.05,0-5.11.1-.11.18.16,1.01.49,1.51.36.54.93.97,1.62,1.21.57.2,1.08.19,1.95-.06h0ZM49.42,31.88c.5-.26.99-.81,1.31-1.47.28-.57.3-.71.3-1.92,0-1.09-.04-1.4-.25-1.92-.92-2.34-3.7-2.59-5.07-.47-.29.44-.47,1.02-.59,1.8-.23,1.66.56,3.31,1.9,3.97.47.23.65.25,1.32.22.43,0,.91-.13,1.09-.22h0ZM35.23,26.07c.04-.25-.37-1.04-.7-1.33-.54-.48-1.06-.67-1.88-.68-.92,0-1.44.2-2.02.82-.29.31-.8,1.16-.8,1.33,0,.06,4.84.14,5.26.11.06,0,.12-.11.14-.25h0Z" class="cls-2"></path>
</svg>