<svg viewBox="0 0 100 50" xmlns="http://www.w3.org/2000/svg" id="Layer_1">
  <defs>
    <style>
      .cls-1 {
        fill: none;
        stroke: #b2b2b2;
        stroke-miterlimit: 10;
      }

      .cls-2 {
        fill: #5d5d5d;
      }
    </style>
  </defs>
  <rect height="48" width="98" y="1" x="1" class="cls-1"></rect>
  <path d="M43.09,28.55c-.41.27-2.54,1-2.54-1.45v-7.91h-2.55v7.81c0,5.7,6.26,3.89,7.64,2.97v-10.77h-2.54v9.36ZM35.35,11.18v16.81c0,7.89,5.85,10.29,14.65,14.01,8.77-3.72,14.65-6.1,14.65-14.01V11.18c-9.08-4.69-21.99-3.77-29.3,0ZM63.3,27.99c0,6.59-4.15,8.64-13.3,12.58-9.17-3.94-13.31-5.99-13.31-12.58v-9.62c7.98-7.14,18.08-7.61,26.61-6.83v16.45ZM46.94,19.82v16.19h2.55v-5.23c1.9.56,5.6-.2,5.6-5.97,0-7.41-6.3-6.16-8.15-4.99ZM49.49,28.74v-7.63c.66-.32,3-.97,3,3.75,0,5.17-2.84,3.94-3,3.88ZM55.67,22.17c0,3.6,4.03,3.23,4.07,5.36.05,1.79-2.37,1.75-3.96.37v2.29c2.83,1.64,6.39.62,6.49-2.55.13-3.92-4.22-3.55-4.17-5.57.05-1.54,2.39-1.56,3.79-.17v-2.16c-2.22-1.67-6.24-.7-6.22,2.43Z" class="cls-2"></path>
</svg>